<svg id="visual" viewBox="0 0 960 540" width="960" height="540" xmlns="http://www.w3.org/2000/svg" xmlns:xlink="http://www.w3.org/1999/xlink" version="1.1"><rect x="0" y="0" width="960" height="540" fill="#ffffff"></rect><path d="M90 0L98.3 12.8C106.7 25.7 123.3 51.3 122.5 77C121.7 102.7 103.3 128.3 99.5 154C95.7 179.7 106.3 205.3 116 231.2C125.7 257 134.3 283 133.2 308.8C132 334.7 121 360.3 107.7 386C94.3 411.7 78.7 437.3 78.5 463C78.3 488.7 93.7 514.3 101.3 527.2L109 540L0 540L0 527.2C0 514.3 0 488.7 0 463C0 437.3 0 411.7 0 386C0 360.3 0 334.7 0 308.8C0 283 0 257 0 231.2C0 205.3 0 179.7 0 154C0 128.3 0 102.7 0 77C0 51.3 0 25.7 0 12.8L0 0Z" fill="#01866a" stroke-linecap="round" stroke-linejoin="miter"></path></svg>