<svg id="visual" viewBox="0 0 675 900" width="675" height="900" xmlns="http://www.w3.org/2000/svg" xmlns:xlink="http://www.w3.org/1999/xlink" version="1.1"><rect x="0" y="0" width="675" height="900" fill="#01866A"></rect><defs><linearGradient id="grad1_0" x1="0%" y1="0%" x2="100%" y2="100%"><stop offset="30%" stop-color="#01866a" stop-opacity="1"></stop><stop offset="70%" stop-color="#01866a" stop-opacity="1"></stop></linearGradient></defs><defs><linearGradient id="grad2_0" x1="0%" y1="0%" x2="100%" y2="100%"><stop offset="30%" stop-color="#01866a" stop-opacity="1"></stop><stop offset="70%" stop-color="#01866a" stop-opacity="1"></stop></linearGradient></defs><g transform="translate(675, 0)"><path d="M0 309.4C-31.7 281.5 -63.3 253.7 -99.5 240.2C-135.7 226.7 -176.3 227.6 -210 210C-243.7 192.4 -270.4 156.5 -285.8 118.4C-301.2 80.3 -305.3 40.2 -309.4 0L0 0Z" fill="#fff"></path></g><g transform="translate(0, 900)"><path d="M0 -309.4C28.5 -275.5 57 -241.6 95.7 -231C134.3 -220.4 183.1 -233 217.8 -217.8C252.4 -202.5 272.9 -159.3 285.8 -118.4C298.7 -77.4 304.1 -38.7 309.4 0L0 0Z" fill="#fff"></path></g></svg>